<?xml version="1.0" ?>
<svg xmlns="http://www.w3.org/2000/svg" xmlns:ev="http://www.w3.org/2001/xml-events" xmlns:xlink="http://www.w3.org/1999/xlink" baseProfile="full" height="600px" version="1.1" viewBox="-6.709578162389686 -9.527016168732487 47.76942636805295 50.01862963662666" width="574px">
	<defs/>
	<path d="M 0.0,0.0 Q 3.2258344343919787,-2.951848947717568 0.0,0.0" fill="none" stroke="rgb(31,119,180)" stroke-width="0.01"/>
	<path d="M 0.0,5.0 Q 3.2389739570603577,1.9348079981884554 -1.3373415915500997,6.0741304347269836" fill="none" stroke="rgb(255,127,14)" stroke-width="0.01"/>
	<path d="M 0.0,10.0 Q 3.307877297925385,7.450464263768734 -2.34689119983822,12.379535348425287" fill="none" stroke="rgb(44,160,44)" stroke-width="0.01"/>
	<path d="M 0.0,15.0 Q 3.4424305496114305,13.93338486850414 -2.7114395129160025,18.517362062553918" fill="none" stroke="rgb(214,39,40)" stroke-width="0.01"/>
	<path d="M 0.0,20.0 Q 3.618212967402265,20.852916827921703 -2.3351862167097743,23.97999542522062" fill="none" stroke="rgb(148,103,189)" stroke-width="0.01"/>
	<path d="M 0.0,25.0 Q 3.793745900608614,27.329636428515265 -1.4340006184929202,28.5479557439977" fill="none" stroke="rgb(140,86,75)" stroke-width="0.01"/>
	<path d="M 0.0,30.0 Q 3.927668565274028,32.65570416039968 -0.4717515382997498,32.424443504673036" fill="none" stroke="rgb(227,119,194)" stroke-width="0.01"/>
	<path d="M 0.0,35.0 Q 3.995840658219017,36.81521964996498 0.057293531719137474,36.10753087593625" fill="none" stroke="rgb(127,127,127)" stroke-width="0.01"/>
	<path d="M 5.0,0.0 Q 9.093666723204773,-2.9198027399389828 6.271835556682117,-1.5848284720068075" fill="none" stroke="rgb(188,189,34)" stroke-width="0.01"/>
	<path d="M 5.0,5.0 Q 9.186680301580932,1.9925162071754279 4.96906512083923,4.4908590390662555" fill="none" stroke="rgb(23,190,207)" stroke-width="0.01"/>
	<path d="M 5.0,10.0 Q 9.28773841312653,7.5524856431723375 4.0113208130610225,10.784062500413617" fill="none" stroke="rgb(23,190,207)" stroke-width="0.01"/>
	<path d="M 5.0,15.0 Q 9.379759973480008,14.065310027447119 3.719051328844853,16.898896384198913" fill="none" stroke="rgb(23,190,207)" stroke-width="0.01"/>
	<path d="M 5.0,20.0 Q 9.4421252123226,20.986052259893178 4.180679605767721,22.338765148290157" fill="none" stroke="rgb(23,190,207)" stroke-width="0.01"/>
	<path d="M 5.0,25.0 Q 9.466853825129682,27.435846589791687 5.167536961850384,26.895006304128756" fill="none" stroke="rgb(23,190,207)" stroke-width="0.01"/>
	<path d="M 5.0,30.0 Q 9.463746590543048,32.718313638349414 6.202814992675902,30.776419225322726" fill="none" stroke="rgb(23,190,207)" stroke-width="0.01"/>
	<path d="M 5.0,35.0 Q 9.45449045336392,36.835975421236526 6.784535227262611,34.47967969696407" fill="none" stroke="rgb(23,190,207)" stroke-width="0.01"/>
	<path d="M 10.0,0.0 Q 14.508668857050537,-2.7462205762073086 13.01977103599403,-3.3861379513997196" fill="none" stroke="rgb(23,190,207)" stroke-width="0.01"/>
	<path d="M 10.0,5.0 Q 14.758368639203013,2.152015212612636 11.859807263798583,2.69672106806031" fill="none" stroke="rgb(23,190,207)" stroke-width="0.01"/>
	<path d="M 10.0,10.0 Q 14.929641983521252,7.654244315354544 10.936090836683844,8.916291552206419" fill="none" stroke="rgb(23,190,207)" stroke-width="0.01"/>
	<path d="M 10.0,15.0 Q 14.95411436772789,14.074782724690422 10.550341970320078,14.891807003603091" fill="none" stroke="rgb(23,190,207)" stroke-width="0.01"/>
	<path d="M 10.0,20.0 Q 14.815811764481811,20.9044272597628 10.839135254813327,20.189259212491258" fill="none" stroke="rgb(31,119,180)" stroke-width="0.01"/>
	<path d="M 10.0,25.0 Q 14.567193608504432,27.305206771232072 11.654774658978766,24.663266738099367" fill="none" stroke="rgb(255,127,14)" stroke-width="0.01"/>
	<path d="M 10.0,30.0 Q 14.31283691848471,32.605329896906554 12.600660473046277,28.55747712388267" fill="none" stroke="rgb(44,160,44)" stroke-width="0.01"/>
	<path d="M 10.0,35.0 Q 14.160771573762931,36.794132817372535 13.221148189798297,32.36350284669068" fill="none" stroke="rgb(214,39,40)" stroke-width="0.01"/>
	<path d="M 15.0,0.0 Q 18.05997863850019,-2.4056673944611306 19.712618093276447,-4.8517841174709595" fill="none" stroke="rgb(148,103,189)" stroke-width="0.01"/>
	<path d="M 15.0,5.0 Q 18.445344031138504,2.43627776827537 18.825644879493503,1.2460470413412548" fill="none" stroke="rgb(140,86,75)" stroke-width="0.01"/>
	<path d="M 15.0,10.0 Q 18.68743777657467,7.769476805150154 17.928726917913913,7.325948001912203" fill="none" stroke="rgb(227,119,194)" stroke-width="0.01"/>
	<path d="M 15.0,15.0 Q 18.675730384548235,13.961354574333404 17.28095849681327,13.037545275432338" fill="none" stroke="rgb(127,127,127)" stroke-width="0.01"/>
	<path d="M 15.0,20.0 Q 18.394323247350165,20.59399052954826 17.12767203437055,18.067956186128924" fill="none" stroke="rgb(188,189,34)" stroke-width="0.01"/>
	<path d="M 15.0,25.0 Q 17.940601960644695,26.91673569906513 17.504405965822887,22.39306237722158" fill="none" stroke="rgb(23,190,207)" stroke-width="0.01"/>
	<path d="M 15.0,30.0 Q 17.493360379705877,32.29901988179824 18.19629539070894,26.32196032008925" fill="none" stroke="rgb(23,190,207)" stroke-width="0.01"/>
	<path d="M 15.0,35.0 Q 17.23039541106865,36.683158843402175 18.85288548020105,30.334588826648666" fill="none" stroke="rgb(23,190,207)" stroke-width="0.01"/>
	<path d="M 20.0,0.0 Q 20.168929030120246,-1.9598095581277342 25.573198371173323,-5.341443913544327" fill="none" stroke="rgb(23,190,207)" stroke-width="0.01"/>
	<path d="M 20.0,5.0 Q 20.60882205028943,2.805277749902017 25.044549366351475,0.7778013669329384" fill="none" stroke="rgb(23,190,207)" stroke-width="0.01"/>
	<path d="M 20.0,10.0 Q 20.892182090268875,7.911030843625863 24.187641369143744,6.684705892859483" fill="none" stroke="rgb(23,190,207)" stroke-width="0.01"/>
	<path d="M 20.0,15.0 Q 20.89441867914102,13.798291721429695 23.20648095439882,12.07013546760993" fill="none" stroke="rgb(23,190,207)" stroke-width="0.01"/>
	<path d="M 20.0,20.0 Q 20.594623242968133,20.170984229097503 22.487042618871094,16.776281807938233" fill="none" stroke="rgb(23,190,207)" stroke-width="0.01"/>
	<path d="M 20.0,25.0 Q 20.098782251569382,26.39356510317317 22.30178068575701,20.93180152543443" fill="none" stroke="rgb(23,190,207)" stroke-width="0.01"/>
	<path d="M 20.0,30.0 Q 19.605502122114757,31.88865744478118 22.670782673963103,24.925489793656485" fill="none" stroke="rgb(23,190,207)" stroke-width="0.01"/>
	<path d="M 20.0,35.0 Q 19.31424587953564,36.53468419344735 23.379564132105703,29.218488700937208" fill="none" stroke="rgb(23,190,207)" stroke-width="0.01"/>
	<path d="M 25.0,0.0 Q 22.190175838163842,-1.51388838951394 30.180965563069755,-4.630387283007359" fill="none" stroke="rgb(31,119,180)" stroke-width="0.01"/>
	<path d="M 25.0,5.0 Q 22.582069046725607,3.1838318823758103 30.015763623376017,1.51266640169126" fill="none" stroke="rgb(255,127,14)" stroke-width="0.01"/>
	<path d="M 25.0,10.0 Q 22.85973070173713,8.080588758713299 29.22677833916118,7.259620146597651" fill="none" stroke="rgb(44,160,44)" stroke-width="0.01"/>
	<path d="M 25.0,15.0 Q 22.917843637439578,13.678971242668025 27.967019065364433,12.344490831821268" fill="none" stroke="rgb(214,39,40)" stroke-width="0.01"/>
	<path d="M 25.0,20.0 Q 22.727850743762822,19.79774457897749 26.753168321630465,16.75990166130544" fill="none" stroke="rgb(148,103,189)" stroke-width="0.01"/>
	<path d="M 25.0,25.0 Q 22.365543700578662,25.91413688142325 26.07764998882874,20.77936396472934" fill="none" stroke="rgb(140,86,75)" stroke-width="0.01"/>
	<path d="M 25.0,30.0 Q 21.98812244736872,31.50629888437584 26.17855767494732,24.86345136754864" fill="none" stroke="rgb(227,119,194)" stroke-width="0.01"/>
	<path d="M 25.0,35.0 Q 21.760725388306856,36.39576369433964 26.96744325036145,29.449866329174917" fill="none" stroke="rgb(127,127,127)" stroke-width="0.01"/>
	<path d="M 30.0,0.0 Q 25.51235890126896,-1.173175131688886 33.70725356046127,-3.0611517723705814" fill="none" stroke="rgb(188,189,34)" stroke-width="0.01"/>
	<path d="M 30.0,5.0 Q 25.772063492335686,3.492243118526175 33.827990500673046,3.102925742235909" fill="none" stroke="rgb(23,190,207)" stroke-width="0.01"/>
	<path d="M 30.0,10.0 Q 25.99784973085215,8.266602700417259 33.1363548025237,8.74318362351505" fill="none" stroke="rgb(23,190,207)" stroke-width="0.01"/>
	<path d="M 30.0,15.0 Q 26.129331725232944,13.67610452616607 31.753068857487524,13.62886390855471" fill="none" stroke="rgb(23,190,207)" stroke-width="0.01"/>
	<path d="M 30.0,20.0 Q 26.131134487884996,19.613095996449296 30.278464100881266,17.86198011785718" fill="none" stroke="rgb(23,190,207)" stroke-width="0.01"/>
	<path d="M 30.0,25.0 Q 26.02262169780575,25.63622724311137 29.345366029430107,21.817287764775497" fill="none" stroke="rgb(23,190,207)" stroke-width="0.01"/>
	<path d="M 30.0,30.0 Q 25.87527461796019,31.27077032117588 29.33077020986468,26.00079050237175" fill="none" stroke="rgb(23,190,207)" stroke-width="0.01"/>
	<path d="M 30.0,35.0 Q 25.777722167436625,36.30893840085691 30.226309278549238,30.826781907697338" fill="none" stroke="rgb(23,190,207)" stroke-width="0.01"/>
	<path d="M 35.0,0.0 Q 30.65876327915655,-0.9994073388594372 36.78315068425463,-1.3431200013538862" fill="none" stroke="rgb(23,190,207)" stroke-width="0.01"/>
	<path d="M 35.0,5.0 Q 30.761157325478198,3.6797456695497903 37.06170955618958,4.835146746373555" fill="none" stroke="rgb(23,190,207)" stroke-width="0.01"/>
	<path d="M 35.0,10.0 Q 30.913326503814254,8.450441700599333 36.485914967420534,10.440008911074246" fill="none" stroke="rgb(23,190,207)" stroke-width="0.01"/>
	<path d="M 35.0,15.0 Q 31.10567983728813,13.813787630377414 35.16975020714566,15.261431066678494" fill="none" stroke="rgb(23,190,207)" stroke-width="0.01"/>
	<path d="M 35.0,20.0 Q 31.299407294546093,19.677338764529697 33.73258130344413,19.450405550417656" fill="none" stroke="rgb(31,119,180)" stroke-width="0.01"/>
	<path d="M 35.0,25.0 Q 31.455498125768568,25.63379783151979 32.83853612541008,23.42175439674525" fill="none" stroke="rgb(255,127,14)" stroke-width="0.01"/>
	<path d="M 35.0,30.0 Q 31.552722664302326,31.239866907732875 32.895148655995555,27.69311490188404" fill="none" stroke="rgb(44,160,44)" stroke-width="0.01"/>
	<path d="M 35.0,35.0 Q 31.594577593913645,36.29509934257934 33.911268435562256,32.660108818999106" fill="none" stroke="rgb(214,39,40)" stroke-width="0.01"/>
</svg>
